# xmcd
#
# Track frame offsets:
#	150
#	38083
#	56378
#
# Disc length: 1073 seconds
#
# Revision: 1
# Processed by: cddbd v1.5.2PL0 Copyright (c) Steve Scherf et al.
# Submitted via: audiograbber 1.83.01
#
DISCID=1b042f03
DTITLE=Grateful Dead - 73-10-30 Kiel Auditorium, St Louis MO
DYEAR=1900
DGENRE=
TTITLE0=GDTRFB
TTITLE1=Johnny B Goode
TTITLE2=One More Saturday Night
EXTD=
EXTT0=
EXTT1=
EXTT2=
PLAYORDER=
